<svg id="visual" viewBox="0 0 900 600" width="900" height="600" xmlns="http://www.w3.org/2000/svg" xmlns:xlink="http://www.w3.org/1999/xlink" version="1.1"><path d="M0 133L13.7 139C27.3 145 54.7 157 82 168C109.3 179 136.7 189 163.8 212C191 235 218 271 245.2 262C272.3 253 299.7 199 327 168C354.3 137 381.7 129 409 143C436.3 157 463.7 193 491 197C518.3 201 545.7 173 573 159C600.3 145 627.7 145 654.8 160C682 175 709 205 736.2 211C763.3 217 790.7 199 818 177C845.3 155 872.7 129 886.3 116L900 103L900 0L886.3 0C872.7 0 845.3 0 818 0C790.7 0 763.3 0 736.2 0C709 0 682 0 654.8 0C627.7 0 600.3 0 573 0C545.7 0 518.3 0 491 0C463.7 0 436.3 0 409 0C381.7 0 354.3 0 327 0C299.7 0 272.3 0 245.2 0C218 0 191 0 163.8 0C136.7 0 109.3 0 82 0C54.7 0 27.3 0 13.7 0L0 0Z" fill="#314e31"></path><path d="M0 223L13.7 227C27.3 231 54.7 239 82 249C109.3 259 136.7 271 163.8 291C191 311 218 339 245.2 325C272.3 311 299.7 255 327 225C354.3 195 381.7 191 409 207C436.3 223 463.7 259 491 268C518.3 277 545.7 259 573 245C600.3 231 627.7 221 654.8 234C682 247 709 283 736.2 295C763.3 307 790.7 295 818 272C845.3 249 872.7 215 886.3 198L900 181L900 101L886.3 114C872.7 127 845.3 153 818 175C790.7 197 763.3 215 736.2 209C709 203 682 173 654.8 158C627.7 143 600.3 143 573 157C545.7 171 518.3 199 491 195C463.7 191 436.3 155 409 141C381.7 127 354.3 135 327 166C299.7 197 272.3 251 245.2 260C218 269 191 233 163.8 210C136.7 187 109.3 177 82 166C54.7 155 27.3 143 13.7 137L0 131Z" fill="#233823"></path><path d="M0 301L13.7 306C27.3 311 54.7 321 82 343C109.3 365 136.7 399 163.8 418C191 437 218 441 245.2 424C272.3 407 299.7 369 327 341C354.3 313 381.7 295 409 307C436.3 319 463.7 361 491 371C518.3 381 545.7 359 573 347C600.3 335 627.7 333 654.8 339C682 345 709 359 736.2 367C763.3 375 790.7 377 818 364C845.3 351 872.7 323 886.3 309L900 295L900 179L886.3 196C872.7 213 845.3 247 818 270C790.7 293 763.3 305 736.2 293C709 281 682 245 654.8 232C627.7 219 600.3 229 573 243C545.7 257 518.3 275 491 266C463.7 257 436.3 221 409 205C381.7 189 354.3 193 327 223C299.7 253 272.3 309 245.2 323C218 337 191 309 163.8 289C136.7 269 109.3 257 82 247C54.7 237 27.3 229 13.7 225L0 221Z" fill="#152415"></path><path d="M0 487L13.7 496C27.3 505 54.7 523 82 530C109.3 537 136.7 533 163.8 533C191 533 218 537 245.2 530C272.3 523 299.7 505 327 507C354.3 509 381.7 531 409 533C436.3 535 463.7 517 491 511C518.3 505 545.7 511 573 508C600.3 505 627.7 493 654.8 489C682 485 709 489 736.2 503C763.3 517 790.7 541 818 549C845.3 557 872.7 549 886.3 545L900 541L900 293L886.3 307C872.7 321 845.3 349 818 362C790.7 375 763.3 373 736.2 365C709 357 682 343 654.8 337C627.7 331 600.3 333 573 345C545.7 357 518.3 379 491 369C463.7 359 436.3 317 409 305C381.7 293 354.3 311 327 339C299.7 367 272.3 405 245.2 422C218 439 191 435 163.8 416C136.7 397 109.3 363 82 341C54.7 319 27.3 309 13.7 304L0 299Z" fill="#142013"></path><path d="M0 601L13.7 601C27.3 601 54.7 601 82 601C109.3 601 136.7 601 163.8 601C191 601 218 601 245.2 601C272.3 601 299.7 601 327 601C354.3 601 381.7 601 409 601C436.3 601 463.7 601 491 601C518.3 601 545.7 601 573 601C600.3 601 627.7 601 654.8 601C682 601 709 601 736.2 601C763.3 601 790.7 601 818 601C845.3 601 872.7 601 886.3 601L900 601L900 539L886.3 543C872.7 547 845.3 555 818 547C790.7 539 763.3 515 736.2 501C709 487 682 483 654.8 487C627.7 491 600.3 503 573 506C545.7 509 518.3 503 491 509C463.7 515 436.3 533 409 531C381.7 529 354.3 507 327 505C299.7 503 272.3 521 245.2 528C218 535 191 531 163.8 531C136.7 531 109.3 535 82 528C54.7 521 27.3 503 13.7 494L0 485Z" fill="#121c11"></path></svg>